<?xml version="1.0" encoding="UTF-8"?>
<svg id="Layer_2" data-name="Layer 2" xmlns="http://www.w3.org/2000/svg" viewBox="0 0 389.87 437.43">
  <defs>
    <style>
      .cls-1 {
        fill: #fff;
      }
    </style>
  </defs>
  <g id="Layer_2-2" data-name="Layer 2">
    <path class="cls-1" d="M293.92,77.03c-4.43-14.24-11.29-26.26-20.56-36.06-9.29-9.81-21.31-18.09-36.07-24.84-10.97-5.27-21.04-9.28-30.21-12.02-9.18-2.74-19.57-4.11-31.16-4.11-2.11,0-4.43,.05-6.96,.15-2.53,.11-5.17,.27-7.91,.48L95.25,6.32V246.76l31.63,15.81,69.29-6.01c20.45-1.9,38.48-7.75,54.09-17.56,15.61-9.8,27.89-23.88,36.86-42.23,8.96-18.35,13.44-40.91,13.44-67.7,0-20.45-2.21-37.8-6.64-52.04Zm-41.13,102.34c-8.65,17.93-20.61,31.75-35.9,41.44-15.3,9.71-32.86,15.4-52.68,17.09l-65.8,5.38V9.17l62.96-5.38c2.31-.2,4.63-.36,6.96-.47,2.31-.11,4.53-.16,6.64-.16,29.94,0,52.56,9.39,67.86,28.16,15.29,18.77,22.93,46.08,22.93,81.93,0,26.16-4.32,48.2-12.97,66.12Z"/>
    <path class="cls-1" d="M179.01,65.36l-40.32,2.89v112.83l37.39-3.33s38.38-2.78,43.26-50.72c4.88-47.94-21.72-60.96-40.32-61.67Zm22.61,91.67c-9.69,11.59-21.71,14.13-21.71,14.13-9.06,2.25-16.95-.22-16.95-.22,5-1.59,11.94-7.14,11.94-7.14,20.38-17.77,17.89-43.32,17.89-43.32-4.61-44.09-38.62-44.1-38.62-44.1,27.22-16.91,46.88,6.62,46.88,6.62,13.27,14.3,13.28,35.12,13.28,35.12,.65,24-12.71,38.92-12.71,38.92Z"/>
    <g>
      <path class="cls-1" d="M57.1,361.54c0,21.91-14.12,35.59-36.78,35.59H0v-71.36H20.32c22.66-.04,36.78,13.68,36.78,35.77Zm-11.33-.04c0-15.14-9.83-24.61-25.5-24.61H11.15v49.09h9.25c15.58,0,25.36-9.43,25.36-24.48Z"/>
      <path class="cls-1" d="M105.76,386.29h-33.77l-4.87,10.84h-12.13l33.55-72.82h.66l33.55,72.82h-12.13l-4.87-10.84Zm-4.34-9.61l-12.53-27.89-12.57,27.89h25.1Z"/>
      <path class="cls-1" d="M188.05,325.6v72.77h-.53l-45.64-47.67v46.52h-11.2v-72.68h.58l45.55,47.59v-46.52h11.24Z"/>
      <path class="cls-1" d="M246.49,336.89h-19.12v60.25h-11.24v-60.25h-19.12v-11.11h49.49v11.11Z"/>
      <path class="cls-1" d="M248.44,361.54c0-20.36,16.56-37.01,36.87-37.01s36.92,16.64,36.92,37.01-16.64,36.74-36.96,36.74-36.83-16.56-36.83-36.74Zm62.46-.09c0-14.12-11.55-25.63-25.63-25.63s-25.54,11.51-25.54,25.63,11.46,25.5,25.54,25.5,25.63-11.46,25.63-25.5Z"/>
      <path class="cls-1" d="M389.87,325.6v72.77h-.53l-45.64-47.67v46.52h-11.2v-72.68h.58l45.55,47.59v-46.52h11.24Z"/>
    </g>
    <g>
      <path class="cls-1" d="M.43,405.63H10.87c6.04,0,10.98,4.63,10.98,10.3s-4.94,10.09-10.98,10.09H5.33v10.83H.43v-31.22Zm16.52,10.27c0-2.98-2.73-5.4-6.08-5.4H5.33v10.67l5.54,.02c3.35,.02,6.08-2.36,6.08-5.29Z"/>
      <path class="cls-1" d="M73.7,432.11h-14.78l-2.13,4.75h-5.31l14.68-31.86h.29l14.68,31.86h-5.31l-2.13-4.75Zm-1.9-4.2l-5.48-12.2-5.5,12.2h10.98Z"/>
      <path class="cls-1" d="M135.88,436.85l-8.41-12.09h-3.83v12.09h-4.9l-.02-31.22h9.7c5.81,0,10.57,4.47,10.57,10.03,0,4.03-2.6,7.53-6.18,8.7l9.08,12.49h-6.02Zm-7.34-16.15c2.94,.02,5.4-2.36,5.4-5.15s-2.5-5.06-5.4-5.06h-4.92v10.21h4.92Z"/>
      <path class="cls-1" d="M184.21,410.43v8.35h11.81v4.88h-11.81v13.23h-4.9v-31.34h18.59v4.88h-13.69Z"/>
      <path class="cls-1" d="M235.62,425.02v-19.39h4.92v19.37c0,4.32,3.04,7.48,6.86,7.48s6.9-3.16,6.9-7.48v-19.37h4.94v19.39c0,7.17-5.17,12.41-11.81,12.41s-11.8-5.25-11.8-12.41Z"/>
      <path class="cls-1" d="M329.61,404.95v31.9h-4.9v-17.32l-10.36,16.79h-.04l-10.38-16.81v17.33h-4.9v-31.9h.37l14.93,22.7,14.91-22.7h.37Z"/>
      <path class="cls-1" d="M367.93,431.37l3.87-2.77c1.39,2.44,3.99,3.83,6.99,3.83,3.51,0,6.16-1.69,6.16-4.07,0-2.89-4.11-4.63-7.75-6.2-3.66-1.63-7.73-3.52-7.73-8.43s4.44-8.68,10.05-8.68c4.45,0,7.79,2.15,9.06,5.58l-3.64,2.52c-.97-2.11-3.12-3.29-5.38-3.29-2.87,0-5.15,1.78-5.15,3.99,0,2.44,2.89,3.31,6.68,4.94,4.94,2.17,8.77,4.55,8.77,9.47,0,5.54-4.8,9.1-11.14,9.1-5.13,0-9.03-2.4-10.81-6Z"/>
    </g>
  </g>
</svg>